<svg width="34" height="50" viewBox="0 0 34 50" fill="none" xmlns="http://www.w3.org/2000/svg">
<path d="M24.357 25.5625L26.3989 25.5857C26.2144 27.2106 25.7502 28.611 25.0063 29.7869C24.2625 30.9517 23.2562 31.8423 21.9874 32.4588C20.7186 33.0753 19.1933 33.3734 17.4115 33.3532C16.0392 33.3376 14.7972 33.0633 13.6853 32.5305C12.5845 31.9977 11.6411 31.251 10.8551 30.2901C10.0692 29.3183 9.46811 28.1603 9.05172 26.8163C8.63533 25.4723 8.43644 23.9813 8.45506 22.3434L8.4894 19.3221C8.50802 17.6842 8.74069 16.2037 9.1874 14.8805C9.63423 13.5463 10.2671 12.4024 11.0859 11.4488C11.9047 10.4951 12.8815 9.76466 14.0163 9.25734C15.151 8.75002 16.4267 8.50442 17.8433 8.52052C19.5586 8.54002 21.038 8.87229 22.2814 9.51732C23.525 10.1513 24.4997 11.0589 25.2057 12.2402C25.9228 13.4216 26.3549 14.8433 26.5021 16.5052L24.4602 16.482C24.3201 15.1743 23.9896 14.0637 23.4687 13.1502C22.9478 12.2367 22.2197 11.5366 21.2845 11.05C20.3604 10.5525 19.2066 10.2959 17.8233 10.2802C16.6944 10.2673 15.6849 10.4717 14.7946 10.8932C13.9043 11.3148 13.1447 11.926 12.5158 12.7268C11.887 13.5166 11.4002 14.4685 11.0555 15.5825C10.7219 16.6966 10.5472 17.9398 10.5316 19.3121L10.4969 22.3666C10.4818 23.6947 10.6229 24.9193 10.92 26.0406C11.2172 27.1619 11.6599 28.1354 12.2482 28.9612C12.8476 29.787 13.5819 30.4318 14.451 30.8955C15.3201 31.3592 16.3136 31.5974 17.4314 31.6101C18.859 31.6263 20.0513 31.413 21.0082 30.9701C21.9763 30.5162 22.7311 29.8385 23.2727 28.9371C23.8142 28.0356 24.1756 26.9107 24.357 25.5625Z" fill="black"/>
<path d="M21.4709 21.9686L23.1582 21.9951C23.0576 22.8022 22.8148 23.5221 22.4299 24.1548C22.0449 24.7875 21.5067 25.286 20.8154 25.6502C20.1241 26.0085 19.2659 26.1797 18.2406 26.1636C17.4907 26.1518 16.8104 26.0005 16.1996 25.7096C15.5947 25.4189 15.0766 25.0123 14.6453 24.4898C14.2141 23.9615 13.8841 23.3322 13.6553 22.602C13.4324 21.866 13.328 21.0498 13.3421 20.1534L13.3621 18.8791C13.3761 17.9828 13.506 17.1732 13.7518 16.4504C14.0035 15.7218 14.356 15.1003 14.8095 14.5859C15.2688 14.0715 15.817 13.6787 16.4541 13.4074C17.0913 13.1361 17.8053 13.0067 18.5962 13.0191C19.5629 13.0343 20.3773 13.2287 21.0395 13.6024C21.7017 13.9761 22.2123 14.4881 22.5713 15.1384C22.9362 15.7828 23.156 16.5276 23.2307 17.3726L21.5434 17.3461C21.4707 16.7473 21.3264 16.2322 21.1105 15.8011C20.8947 15.364 20.5836 15.0251 20.1771 14.7844C19.7707 14.5436 19.2365 14.418 18.5744 14.4076C18.0062 14.3987 17.5035 14.4992 17.0666 14.7092C16.6355 14.9193 16.2704 15.2212 15.9712 15.615C15.6779 16.0089 15.4536 16.4829 15.2984 17.0372C15.1432 17.5915 15.0603 18.2084 15.0496 18.888L15.0294 20.1799C15.0195 20.8067 15.0748 21.3966 15.195 21.9493C15.3211 22.5021 15.5157 22.9886 15.7786 23.4088C16.0416 23.829 16.3792 24.1625 16.7914 24.4092C17.2037 24.6501 17.694 24.775 18.2623 24.7839C18.9829 24.7952 19.5588 24.6899 19.9901 24.4682C20.4213 24.2464 20.7487 23.9234 20.9722 23.4991C21.2015 23.0749 21.3678 22.5647 21.4709 21.9686Z" fill="#266554"/>
<rect x="0.961914" y="21.8951" width="11" height="4" fill="white"/>
<path d="M22 16.86C25.8456 20.1933 25.4742 14 25.4742 14" stroke="black"/>
</svg>
